<svg id="Capa_1" data-name="Capa 1" xmlns="http://www.w3.org/2000/svg" viewBox="0 0 600 275"><defs><style>.cls-1{fill:#00a558;}</style></defs><title>globAllVerde</title><path class="cls-1" d="M134.45,97.24V169.1a46.75,46.75,0,0,1-4.06,17A43.6,43.6,0,0,1,107,208.76a43.21,43.21,0,0,1-16.87,3.33A44.66,44.66,0,0,1,51.56,190l-.17-.33.17-.16,17.84-7.79a18.76,18.76,0,0,0,4.14,5.11,24.24,24.24,0,0,0,5.35,3.57,29.17,29.17,0,0,0,5.84,2.11,24.18,24.18,0,0,0,5.76.73,20.34,20.34,0,0,0,8.27-1.79,21.69,21.69,0,0,0,7.22-5.2,26,26,0,0,0,5-8.13,28.54,28.54,0,0,0,1.86-10.56V137.84A21.43,21.43,0,0,0,111,129a22.66,22.66,0,0,0-5-7.15,24.77,24.77,0,0,0-7.3-4.79A22.72,22.72,0,0,0,81,117a23.72,23.72,0,0,0-7.22,4.82A22.46,22.46,0,0,0,67.13,138a21.79,21.79,0,0,0,1.78,8.82A23.55,23.55,0,0,0,73.78,154a22.9,22.9,0,0,0,7.22,4.9,21.9,21.9,0,0,0,8.84,1.79,20.12,20.12,0,0,0,8.76-1.78h.16l.16.16L107,173.37l-.16.16q-8,6.43-19.63,6.44a41.6,41.6,0,0,1-16.54-3.33,41.74,41.74,0,0,1-22.47-22.38,41.89,41.89,0,0,1,0-32.69,43,43,0,0,1,9-13.3,42.54,42.54,0,0,1,13.47-9,41.6,41.6,0,0,1,16.54-3.33q16.55,0,25.63,12.39V97.24Z"/><path class="cls-1" d="M171.27,64.8V178.35H149.69l.17-113.55Z"/><path class="cls-1" d="M226.91,95.94a40.49,40.49,0,0,1,16.38,3.33,42.41,42.41,0,0,1,22.3,22.3,41.17,41.17,0,0,1,0,32.44,42.38,42.38,0,0,1-22.3,22.31,42.09,42.09,0,0,1-32.77,0A42.38,42.38,0,0,1,188.22,154a41.17,41.17,0,0,1,0-32.44,42.41,42.41,0,0,1,22.3-22.3A40.5,40.5,0,0,1,226.91,95.94Zm0,64.4a16.33,16.33,0,0,0,7.54-1.78,19.92,19.92,0,0,0,6.16-4.95,24.28,24.28,0,0,0,4.22-7.3,25.54,25.54,0,0,0,1.54-9,24.61,24.61,0,0,0-1.54-8.68,22.21,22.21,0,0,0-4.22-7.14,21.05,21.05,0,0,0-6.16-4.78,16.33,16.33,0,0,0-7.54-1.79,16.82,16.82,0,0,0-7.63,1.79,20.62,20.62,0,0,0-6.24,4.78,22.21,22.21,0,0,0-4.22,7.14,24.61,24.61,0,0,0-1.54,8.68,25.54,25.54,0,0,0,1.54,9,24.28,24.28,0,0,0,4.22,7.3,19.54,19.54,0,0,0,6.24,4.95A16.81,16.81,0,0,0,226.91,160.34Z"/><path class="cls-1" d="M329.42,96.27a41,41,0,0,1,16.22,3.24,41.86,41.86,0,0,1,13.3,8.92,42.82,42.82,0,0,1,9,13.31,41.28,41.28,0,0,1,0,32.44,42.89,42.89,0,0,1-9,13.3,41.69,41.69,0,0,1-13.3,8.92,41,41,0,0,1-16.22,3.24q-16.71,0-25.47-12.32v11H282.54V64.8h21.58V138a21.46,21.46,0,0,0,1.78,8.75,22.48,22.48,0,0,0,11.92,11.85,22.1,22.1,0,0,0,8.84,1.78,21.65,21.65,0,0,0,8.68-1.78,22.39,22.39,0,0,0,11.92-11.85,22.31,22.31,0,0,0,0-17.51,24.1,24.1,0,0,0-4.78-7.14,21.12,21.12,0,0,0-7.14-4.79,22.64,22.64,0,0,0-8.68-1.7,23.06,23.06,0,0,0-8.76,1.79l-.16.16-.16-.33-7.95-14.6.16-.16Q317.74,96.26,329.42,96.27Z"/><polygon class="cls-1" points="458.7 178.35 428.79 106.31 441.66 75.41 483.2 178.35 458.7 178.35"/><polygon class="cls-1" points="389.93 178.35 365.43 178.35 411.99 64.8 436.32 64.8 389.93 178.35"/><path class="cls-1" d="M514.18,64.8V178.35H492.6l.17-113.55Z"/><path class="cls-1" d="M551,64.8V178.35H529.43l.16-113.55Z"/><polygon class="cls-1" points="408.19 157.8 441.66 157.8 449.39 178.4 400.47 178.4 408.19 157.8"/></svg>