<svg id="Capa_1" data-name="Capa 1" xmlns="http://www.w3.org/2000/svg" viewBox="0 0 150 147"><defs><style>.cls-1{fill:#fff;}.cls-2{fill:#00a558;}</style></defs><title>svgMenu-03</title><path class="cls-1" d="M9,36.53c.34-1,.61-2,1-2.93A12.39,12.39,0,0,1,21.21,26H131.35c6.45,0,11.36,3.61,12.88,9.46a12.48,12.48,0,0,1-11,15.45c-.7.06-1.41.09-2.12.09H22.45c-6.26,0-11-3.15-12.8-8.53-.24-.64-.18-1.39-.65-1.95Z"/><path class="cls-1" d="M9,74.37c.49-.5.43-1.2.63-1.81a12.51,12.51,0,0,1,12-8.56H132.09c6.26,0,11.13,3.69,12.64,9.49a12.52,12.52,0,0,1-9.14,15.15A12.72,12.72,0,0,1,133,89c-2.44.06-4.88,0-7.31,0H22.58C15.5,89,11.21,85.76,9.24,78.88c0-.1-.16-.18-.24-.27Z"/><path class="cls-1" d="M9,112.48c.47-.56.41-1.3.64-2a12.48,12.48,0,0,1,11-8.46c.58,0,1.15-.07,1.73-.07h109c5.37,0,9.53,2.1,12,6.94,4.17,8.17-1.56,17.62-10.85,18.06H22.79c-7.37,0-11.66-3.27-13.61-10.39,0-.06-.12-.11-.18-.16Z"/><path class="cls-2" d="M76.49,73h54.35s5.67,2.15,4.62,5.21c-.59,1.73-4,2.79-4,2.79H21.91c-2.93,0-4.61-1.23-5.13-3.76a4,4,0,0,1,.17-2.3A4.57,4.57,0,0,1,20.82,72h1.73Z"/><path class="cls-2" d="M76.5,111h54s4-.1,4.91,2a4.5,4.5,0,0,1-2.38,5.89,4.78,4.78,0,0,1-1.3.33,5.14,5.14,0,0,1-1.31-.24h-108c-2.76,0-4.42-1-5.09-3.21a4.4,4.4,0,0,1,2.84-5.53,4.58,4.58,0,0,1,.64-.15,12,12,0,0,1,2-.11Z"/><path class="cls-2" d="M76.35,35h54.48s4.9,1.19,4.88,3.8-4.8,4.2-4.8,4.2H22.47a5.5,5.5,0,0,1-3.93-1.13,4.51,4.51,0,0,1,.32-7A4.6,4.6,0,0,1,21.47,34a11.81,11.81,0,0,1,1.19,0Z"/></svg>